<?xml version="1.0" encoding="UTF-8"?><svg xmlns="http://www.w3.org/2000/svg" xmlns:xlink="http://www.w3.org/1999/xlink" viewBox="0 0 144.82 133.61"><defs><style>.cls-1 {fill: url(#feng_logo);}.cls-2 {fill: url(#feng_logo-2);}</style><linearGradient id="feng_logo" data-name="feng_logo 150" x1="158.24" y1="22.62" x2="91.09" y2="145.43" gradientUnits="userSpaceOnUse"><stop offset="0" stop-color="#ffff25"/><stop offset="0" stop-color="#fefa22"/><stop offset=".03" stop-color="#fee017"/><stop offset=".05" stop-color="#fdcd0e"/><stop offset=".07" stop-color="#fdc109"/><stop offset=".1" stop-color="#fdbe08"/><stop offset=".18" stop-color="#fec601"/><stop offset=".41" stop-color="#fb7b1e"/><stop offset=".57" stop-color="#f9441b"/><stop offset="1" stop-color="#f71818"/></linearGradient><linearGradient id="feng_logo-2" data-name="feng_logo 150" x1="111.88" y1="-2.73" x2="44.73" y2="120.08" xlink:href="#feng_logo"/></defs><path class="cls-1" d="M111.95,110.22c-10.07-8.14-18.86-20.79-18.86-20.79l-1.5,1.29c2.79,3.86,11.36,14.79,18.21,20.36,7.07,5.57,13.93,10.5,16.07,12.21,2.14,1.93,1.29,3,.64,4.29-1.07,2.57,2.14,3.86,3.21,.86,.21-.64,.43-1.5,.43-2.57-.43-4.07-8.14-7.5-18.21-15.64Z"/><path class="cls-2" d="M94.84,91.18c9.51-2.19,15.12,1.46,20.48,2.44-.49-1.46-2.68-3.66-1.46-4.14,4.88-1.71,10.24-.73,15.36-1.22-.98-.98-3.9-2.19-2.93-3.17,1.95-1.95,5.36-1.46,8.05-2.19-.49-.49-1.71-1.46-1.22-1.71,3.66-1.71,7.8-1.95,11.7-2.93-3.66-.73-7.31-.73-10.73-2.19-.49-.24,.49-1.22,.73-1.71-5.61-.73-10.97,.24-16.58-2.44,.24-4.63,9.26-9.51,13.65-14.14-.73,0-2.44,.49-2.19-.24,2.44-4.14,5.85-7.8,8.78-11.7-5.12,.49-10,.73-15.12,1.22,1.95-5.61,4.14-10.97,6.1-16.58-1.71,0-5.12,1.95-5.36,.24-.98-3.9,1.71-7.8,2.68-11.7-.98,0-2.68,1.22-2.93,.24-.49-2.19,.73-4.63,1.22-6.83-.73,0-1.71,.24-1.95-.49-.49-3.66,.24-7.56,.24-11.46-2.68,3.66-4.88,7.8-8.05,10.97-.49,.49-1.22-.73-1.71-1.22-1.46,2.44-1.95,5.85-4.39,7.56-.98,.73-1.71-1.46-2.44-2.44-2.19,5.12-3.41,10.48-6.58,15.12-.73,.98-1.95-1.95-2.19-2.44-.49-.49-.73,16.09-6.58,21.7-8.29-10.73-2.19-17.55-3.17-26.58-.49,.73-1.46,2.68-1.71,1.71-1.22-3.41-.73-7.07-1.22-10.48-.49,.73-1.46,2.93-1.71,2.19-.98-2.44-.49-5.36-.73-8.05-.98,2.44-1.71,5.36-3.17,7.56-.24,.49-.98-.49-1.46-.98-.24,2.68-2.68,8.05-5.61,8.05-2.19,0-5.36-8.05-8.05-11.95-.24,.24-.73,1.22-.98,.98-1.46-1.71-2.19-4.14-3.41-6.1-1.22,1.95-2.68,5.85-3.9,5.61-2.44-.24-6.34-3.9-9.26-5.85,0,.49,.24,1.95-.24,1.95-1.95-.73-3.41-2.44-5.12-3.66,0,.49,.49,1.95,0,1.71-3.17-1.46-5.85-3.9-8.53-5.85,.73,3.41,1.95,6.83,2.19,10.24,0,.49-.98-.49-1.46-.73,.49,1.95,1.46,4.14,1.46,6.1,0,.73-1.22-.24-1.71-.49,.73,3.66,2.44,8.53,1.95,10.97-.24,1.22-4.39,.98-6.83,1.46,1.46,1.95,3.41,3.41,4.39,5.61,.24,.49-.73,.49-1.22,.73,2.68,3.9,9.02,9.75,8.29,11.95-.98,2.68-7.07,2.93-9.51,2.19,0,.49,.73,1.46,.24,1.71-2.68,.73-5.36,.24-8.05,.24,2.44,1.22,5.36,1.95,7.07,3.66,.73,.73-1.71,.49-2.68,.73,3.17,1.71,6.58,2.68,9.26,5.12,.73,.49-1.46,.73-2.19,.98,7.8,4.39,16.34,1.22,23.41,12.92-7.31,3.17-22.67-2.44-22.67-1.95,.24,.49,2.44,2.68,1.46,2.93-5.36,1.22-10.97,.24-16.34,.49,.49,.98,2.19,2.44,1.22,3.17-2.44,1.46-5.85,.73-8.53,1.22,.24,.73,.98,1.71,.49,1.95-4.14,1.71-8.78,2.19-13.41,3.41,3.66,1.46,7.31,2.19,10.73,4.14,.49,.24-.24,1.22-.49,1.95,2.19,.49,4.88,0,6.83,1.46,.73,.49-.98,1.71-1.22,2.68,3.9,.73,8.53-.49,11.95,1.95,1.46,.98-1.46,3.41-2.19,5.12,5.85,.24,11.7,.24,17.8,.49-2.19,4.63-4.39,9.02-6.83,13.65,4.63-1.22,9.26-3.17,14.14-3.9,.73,0-.49,1.46-.49,1.95,6.1-2.44,13.9-9.02,18.29-7.31,.49,6.34-2.68,10.73-4.14,16.34,.73,0,1.95-.73,1.95-.24,0,3.66-1.46,7.07-2.19,10.73,2.44-3.17,4.14-6.83,7.07-9.75,.49-.49,.73,1.22,1.22,1.71,1.71-2.19,2.44-5.61,4.88-6.58,1.22-.49,1.22,2.68,1.71,3.9,2.19-4.63,3.41-10,6.83-13.65,.98-.98,2.19,1.95,3.17,2.93,1.22-5.36-.24-11.95,5.61-19.99-.24-.24-.49-.73-.73-.98l-20.97,24.14,19.26-25.11-56.08-2.93,55.1,.98-21.94-31.21-25.84-2.44h24.38L47.3,20.72l22.19,32.43,9.26-19.99-7.31,22.43,22.19,30.96,23.16-60.22-22.67,61.68,34.86-9.26-34.86,11.22s.24,.49,.73,1.22Z"/></svg>